<svg xmlns="http://www.w3.org/2000/svg" width="865.76" height="682.89" viewBox="0 0 865.76 682.89"><rect x="11.53" y="592.39" width="838.87" height="0.44" fill="#ebebeb"/><path d="M407.86,513.11H64.59A10.15,10.15,0,0,1,54.46,503V20.42A10.15,10.15,0,0,1,64.59,10.36H407.86A10.16,10.16,0,0,1,418,20.51h0V503A10.16,10.16,0,0,1,407.86,513.11ZM64.59,10.72a9.71,9.71,0,0,0-9.69,9.7V503a9.71,9.71,0,0,0,9.69,9.7H407.86a9.72,9.72,0,0,0,9.7-9.7V20.42a9.72,9.72,0,0,0-9.7-9.7Z" fill="#ebebeb"/><path d="M792.4,513.11H449.12A10.17,10.17,0,0,1,439,503V20.42a10.16,10.16,0,0,1,10.15-10.06H792.4a10.15,10.15,0,0,1,10.11,10.06V503A10.15,10.15,0,0,1,792.4,513.11ZM449.12,10.72a9.72,9.72,0,0,0-9.71,9.7V503a9.72,9.72,0,0,0,9.71,9.7H792.4a9.72,9.72,0,0,0,9.7-9.7V20.42a9.72,9.72,0,0,0-9.7-9.7Z" fill="#ebebeb"/><rect x="730.21" y="609.32" width="56.12" height="0.44" fill="#ebebeb"/><rect x="523.28" y="604.5" width="59.39" height="0.44" fill="#ebebeb"/><rect x="691.56" y="625.83" width="110.98" height="0.44" fill="#ebebeb"/><rect x="79.79" y="622.85" width="34.19" height="0.44" fill="#ebebeb"/><rect x="129.82" y="622.85" width="53.85" height="0.44" fill="#ebebeb"/><rect x="323.56" y="615.34" width="96.99" height="0.44" fill="#ebebeb"/><rect x="479.41" y="74.81" width="263.78" height="278.36" fill="#e6e6e6"/><path d="M451.14,65.79H760.27a2.62,2.62,0,0,1,2.62,2.62h0A2.62,2.62,0,0,1,760.27,71H451.14a2.62,2.62,0,0,1-2.63-2.6v0h0a2.63,2.63,0,0,1,2.63-2.63Z" fill="#e6e6e6"/><rect x="468.21" y="74.81" width="269.75" height="278.36" fill="#f0f0f0"/><rect x="479.41" y="353.16" width="263.78" height="10.4" fill="#e6e6e6"/><rect x="449.56" y="353.16" width="269.75" height="10.4" fill="#f0f0f0"/><rect x="483.87" y="90.49" width="238.41" height="247.02" fill="#fafafa"/><polygon points="668.17 337.5 576.21 90.47 532.78 90.47 624.76 337.5 668.17 337.5" fill="#fff"/><polygon points="615.42 337.5 523.46 90.47 506.54 90.47 598.5 337.5 615.42 337.5" fill="#fff"/><rect x="483.89" y="90.49" width="1.99" height="247.02" fill="#e6e6e6"/><g opacity="0.6"><polygon points="545.84 312.9 456.07 312.9 461.17 60.76 550.95 60.76 545.84 312.9" fill="#f0f0f0"/><polygon points="580.81 312.9 510.88 312.9 515.98 60.76 585.91 60.76 580.81 312.9" fill="#e6e6e6"/><polygon points="635.62 312.9 545.84 312.9 550.95 60.76 640.72 60.76 635.62 312.9" fill="#f0f0f0"/><polygon points="670.59 312.9 600.65 312.9 605.75 60.76 675.69 60.74 670.59 312.9" fill="#e6e6e6"/><polygon points="725.39 312.9 635.62 312.9 640.72 60.76 730.5 60.74 725.39 312.9" fill="#f0f0f0"/></g><rect x="138.76" y="46.58" width="239.99" height="267.85" fill="#ebebeb"/><rect x="378.75" y="46.58" width="2.17" height="267.85" fill="#e0e0e0"/><rect x="156.56" y="64.33" width="204.44" height="232.3" fill="#f5f5f5"/><rect x="266.31" y="223.76" width="57.58" height="80.58" fill="#fff"/><polygon points="197.05 311.39 254.62 311.39 258.76 230.78 201.19 230.78 197.05 311.39" fill="#fff"/><polygon points="146.9 211.59 204.47 211.59 208.61 130.98 151.04 130.98 146.9 211.59" fill="#fff"/><rect x="315.56" y="85.96" width="62.03" height="44.32" transform="translate(223.37 449.62) rotate(-87.49)" fill="#fff"/><rect x="139.39" y="61.07" width="62.03" height="44.32" transform="translate(79.79 249.82) rotate(-87.49)" fill="#fff"/><rect x="315.56" y="158.35" width="62.03" height="44.32" transform="translate(161.49 524.66) rotate(-89.24)" fill="#fff"/><rect x="219.38" y="75.68" width="93.9" height="131.45" transform="translate(-3.98 7.77) rotate(-1.66)" fill="#fff"/><rect x="97.57" y="346.35" width="98.68" height="246.04" fill="#f0f0f0"/><rect x="102.97" y="352.52" width="87.86" height="72.42" fill="#e6e6e6"/><rect x="102.97" y="431.45" width="87.86" height="72.42" fill="#e6e6e6"/><rect x="102.97" y="510.39" width="87.86" height="72.42" fill="#e6e6e6"/><rect x="102.97" y="352.52" width="34.56" height="72.42" fill="#e0e0e0"/><rect x="102.97" y="431.45" width="34.56" height="72.42" fill="#e0e0e0"/><rect x="102.96" y="510.39" width="34.56" height="72.42" fill="#e0e0e0"/><rect x="196.25" y="346.35" width="26.79" height="246.04" fill="#f5f5f5"/><rect x="203.08" y="346.35" width="98.68" height="246.04" fill="#f0f0f0"/><rect x="208.48" y="352.52" width="87.86" height="72.42" fill="#e6e6e6"/><rect x="208.48" y="431.45" width="87.86" height="72.42" fill="#e6e6e6"/><rect x="208.5" y="510.37" width="87.86" height="72.42" fill="#e6e6e6"/><rect x="208.48" y="352.52" width="34.56" height="72.42" fill="#e0e0e0"/><rect x="208.48" y="431.45" width="34.56" height="72.42" fill="#e0e0e0"/><rect x="208.47" y="510.39" width="34.56" height="72.42" fill="#e0e0e0"/><rect x="301.76" y="346.35" width="26.79" height="246.04" fill="#f5f5f5"/><path d="M175,489.64c0,7.86-10.17,14.22-22.7,14.22s-22.63-6.4-22.63-14.22Z" fill="#f0f0f0"/><path d="M175,479c0,7.86-10.17,14.22-22.7,14.22s-22.68-6.36-22.68-14.22Z" fill="#f0f0f0"/><path d="M283.41,410.73c0,7.85-12.71,14.22-28.44,14.22s-28.44-6.37-28.44-14.22Z" fill="#fafafa"/><path d="M283.41,400.08c0,7.86-12.71,14.22-28.44,14.22s-28.44-6.38-28.44-14.22Z" fill="#fafafa"/><rect x="214.46" y="520.8" width="71.34" height="61.99" fill="#f0f0f0"/><rect x="285.78" y="520.82" width="10.56" height="61.99" fill="#e0e0e0"/><rect x="108.95" y="362.96" width="71.34" height="61.99" fill="#f0f0f0"/><rect x="180.27" y="362.96" width="10.56" height="61.99" fill="#e0e0e0"/><rect x="462.29" y="462.16" width="13.85" height="130.24" fill="#e6e6e6"/><rect x="458.57" y="462.16" width="8.16" height="130.24" fill="#f0f0f0"/><rect x="456.07" y="462.16" width="196.56" height="14.42" fill="#f0f0f0"/><rect x="740.52" y="462.16" width="13.85" height="130.24" fill="#e6e6e6"/><rect x="737.93" y="462.16" width="8.16" height="130.24" fill="#f0f0f0"/><rect x="658.55" y="462.16" width="98.29" height="14.42" fill="#e6e6e6"/><rect x="653.81" y="462.16" width="13.85" height="130.24" fill="#e6e6e6"/><rect x="650.11" y="462.16" width="8.16" height="130.24" fill="#f0f0f0"/><rect x="249.18" y="510.5" width="22.36" height="29.47" fill="#3f4347"/><path d="M259.18,533.66H260a18.42,18.42,0,0,1,18.42,18.42v0a0,0,0,0,1,0,0H240.76a0,0,0,0,1,0,0v0A18.42,18.42,0,0,1,259.18,533.66Z" fill="#2e3135"/><path d="M158.14,580v18.95h9V585.75l86.3-28.94L305,586v12.37h7.63V574.44l40.25,11.84.27,12.1H361V580.22L272.77,545a39.38,39.38,0,0,0-14.58-2.8h0a39.2,39.2,0,0,0-14.89,2.93Z" fill="#3f4347"/><polygon points="221.82 594.96 221.82 579.96 236.91 562.28 253.39 556.81 261.81 561.28 229.45 586.54 229.45 596.27 221.82 594.96" fill="#2e3135"/><circle cx="225.5" cy="608.9" r="15" fill="#2e3135"/><circle cx="164.72" cy="608.9" r="15" fill="#2e3135"/><circle cx="310.48" cy="608.9" r="15" fill="#2e3135"/><circle cx="355.47" cy="608.9" r="15" fill="#2e3135"/><path d="M163.93,595.48a12.16,12.16,0,0,1,7.22,7.67,13,13,0,0,1-10.86,17l-.3,0" fill="none" stroke="#3f4347" stroke-linecap="round" stroke-linejoin="round"/><path d="M226.82,596.27a12.16,12.16,0,0,1,7.21,7.67,13,13,0,0,1-10.86,17l-.3,0" fill="none" stroke="#3f4347" stroke-linecap="round" stroke-linejoin="round"/><path d="M312.06,596a12.15,12.15,0,0,1,7.22,7.66,13,13,0,0,1-10.86,17l-.31,0" fill="none" stroke="#3f4347" stroke-linecap="round" stroke-linejoin="round"/><path d="M356.26,596a12.13,12.13,0,0,1,7.22,7.66,13,13,0,0,1-10.86,17l-.3,0" fill="none" stroke="#323232" stroke-miterlimit="10"/><path d="M352.32,514.45l-11.5,27.49a26.87,26.87,0,0,0-2.06,9.6l-1.44,54.21c-5-5.86-9.71-14.26-12.48-19.61a26.93,26.93,0,0,1-2.83-9.75c-1.89-19.53-10.69-39.11-11.24-40.31l.24-.17h0a7,7,0,0,0,4.11-5.08l3.49-17.68Z" fill="#f9b499"/><path d="M335.48,623.37a217.56,217.56,0,0,1-28.42-41c3.69-15.26-1.31-22.36-1.31-22.36l-7.11-15,12.13-8.89c.55,1.2,9.35,20.78,11.24,40.31a26.93,26.93,0,0,0,2.83,9.75c2.77,5.35,7.46,13.75,12.48,19.61C342.05,622.32,335.48,623.37,335.48,623.37Z" fill="#0071f2"/><path d="M335.48,623.37C322.59,629.69,290,561.28,290,561.28c-5.79-11.58,8.68-16.31,8.68-16.31l7.11,15s4.4,6.26,1.89,19.66a8,8,0,0,0,.81,5.32A225.14,225.14,0,0,0,335.48,623.37Z" fill="#e6e6e6"/><path d="M489.13,620.48l-47.55-.24a10.2,10.2,0,0,1-6.93-2.79l-5.33-5.07a9.82,9.82,0,0,0-6.05-2.68l-22-1.59-1.31-17.36,13.68.53c12.37,1.57,18.94,7.63,18.94,7.63A104.7,104.7,0,0,0,453.61,611h16.58a27.89,27.89,0,0,1,4.36,0h0C486.37,611.78,489.13,620.48,489.13,620.48Z" fill="#0071f2"/><path d="M489.13,620.48c0,4.21-5.26,3.68-5.26,3.68L436.25,626c-19.17.15-27.82-1.63-31.68-3.11a4.81,4.81,0,0,1-3.1-4.41l-.22-10.38,22,1.59a9.82,9.82,0,0,1,6.05,2.68l5.33,5.07a10.2,10.2,0,0,0,6.93,2.79Z" fill="#e6e6e6"/><path d="M474.55,611a27.89,27.89,0,0,0-4.36,0H453.61a104.7,104.7,0,0,1-21.05-12.1s-6.57-6.06-18.94-7.63l-13.68-.53v-5.53l-25.52-72.09,37.88.53,16.05,66.83Z" fill="#f9b499"/><path d="M145.21,315.64S111.31,225,113.94,204.77c0,0,26.31-20,108.14-8.15l30.26,118.66Z" fill="#3f4347"/><path d="M122.36,208.72s12.37,7.1,25.52,42.1l22.85,64.52" fill="none" stroke="#2e3135" stroke-linecap="round" stroke-linejoin="round"/><rect x="116.31" y="507.87" width="4.74" height="113.4" fill="#e1e1e2"/><rect x="132.62" y="507.87" width="4.74" height="113.4" fill="#e1e1e2"/><rect x="753.29" y="507.87" width="4.74" height="113.4" fill="#e1e1e2"/><rect x="769.6" y="507.87" width="4.74" height="113.4" fill="#e1e1e2"/><rect x="116.31" y="325.28" width="658.03" height="191.28" fill="#9ea0a3"/><path d="M362.58,294.49l6.05-1.05L365,310l-4.48.26S359.31,303.82,362.58,294.49Z" fill="#f9b499"/><path d="M380.88,235.16,365,310l-31.79,1.06v4.63H466.5l12.47-78a3.77,3.77,0,0,0-3.66-4.36l-90.7-1.21A3.75,3.75,0,0,0,380.88,235.16Z" fill="#2f2e41"/><path d="M273.26,208.09s13.54,4.84,23.28,28.26L313.9,279.5s38.42,8.42,39.21,12.36c0,0,11.31-1.84,9.47,2.63a64.43,64.43,0,0,0-2.11,15.79l-16.31.53-50.78-3.16s-10.26-7.11-6.58-34.47l-.79-.52a40.43,40.43,0,0,0,1.58-29s-6.55-11.86-7.1-22.1A26.75,26.75,0,0,0,273.26,208.09Z" fill="#0071f2"/><path d="M273.26,208.09s13.54,4.84,23.28,28.26L313.9,279.5s38.42,8.42,39.21,12.36c0,0,11.31-1.84,9.47,2.63a64.43,64.43,0,0,0-2.11,15.79l-16.31.53-50.78-3.16s-10.26-7.11-6.58-34.47l-.79-.52a40.43,40.43,0,0,0,1.58-29s-6.55-11.86-7.1-22.1A26.75,26.75,0,0,0,273.26,208.09Z" fill="#fff" opacity="0.4"/><g opacity="0.4"><path d="M313.9,280a.55.55,0,0,1-.24-.07c-.05,0-5.67-3.58-8.86-2.84a.44.44,0,0,1-.54-.34.45.45,0,0,1,.33-.54c3.56-.82,9.31,2.8,9.55,3a.44.44,0,0,1,.14.62A.45.45,0,0,1,313.9,280Z" fill="#fff"/></g><g opacity="0.4"><path d="M348.63,308.89h0a.47.47,0,0,1-.41-.5c1.57-15.36,4.45-16.83,4.77-16.95a.44.44,0,0,1,.58.27.46.46,0,0,1-.25.57c-.09.05-2.73,1.73-4.2,16.2A.46.46,0,0,1,348.63,308.89Z" fill="#fff"/></g><rect x="104.21" y="315.8" width="684.2" height="16.31" fill="#e1e1e2"/><path d="M676.46,285.55h55.26a3.13,3.13,0,0,1,3.08,3.63L718,390.79l-4.73,27.1s-2.64,26.31-33.16,37.62l48.15,199.17-8.42.27L672.25,459.2s-14.21,1.58-24.73,1.58c0,0-6-1.85-8.42,11.57L594.37,654.42h-6.84l43.94-186.8s1.32-15,16-15H555.7l48.14,202.06H597L546.22,458.14s-23.94-2.63-27.62,8.69L474.4,653.37h-8.16l43.94-185.49s.53-12.1,14.21-15H508.34v-17.1l172.59-.53s8.16-2.36,8.16,6.58c0,0,18.15-5.26,20.52-51.3H690.67l-14.79-28.17Z" fill="#3f4347"/><polygon points="727.5 333.7 738.55 471.56 730.13 472.35 721.45 369.74 727.5 333.7" fill="#2f2e41"/><polygon points="727.5 333.7 738.55 471.56 730.13 472.35 721.45 369.74 727.5 333.7" opacity="0.2"/><path d="M446.51,291.07s-2.78.93-2.05,7.57c0,0,2.78-.82,4.52-1.56A23.09,23.09,0,0,0,446.51,291.07Z" fill="#0071f2"/><path d="M446.51,291.07s-2.78.93-2.05,7.57c0,0,2.78-.82,4.52-1.56A23.09,23.09,0,0,0,446.51,291.07Z" opacity="0.2"/><rect x="573.99" y="165.22" width="42.46" height="62.91" rx="21.23" transform="translate(-31.61 190.06) rotate(-17.68)" fill="#f9b499"/><path d="M573.59,176.62s3.68,6,12.63,5c0,0,6.84,5.53,18.68,4.47,0,0,3.15,5.79,6.57,5.27L619,202l9.61,20.13s23.36-11.34,17-27.29a12.1,12.1,0,0,0-3.89-5.06,20.91,20.91,0,0,1-6.81-8.7s-3.42-17.1-19.73-19.46c0,0-6.84-15.26-17.89-5.27,0,0-8.69-3.15-17.11,5.79,0,0-2.36,3.16-8.94,6.32,0,0-10.42,3.1-6.23,19.29a32.69,32.69,0,0,0,2.15,5.73,16.22,16.22,0,0,1,1.19,7.6s-3.69,37.36,20.78,35.78a69.45,69.45,0,0,0,16.58-3.68l-2-6.23s-6.08,2.15-14.23-1.27c0,0-9-4-11.41-12.83l-6.21-19.48S568.85,184.52,573.59,176.62Z" fill="#2f2e41"/><path d="M579.07,239.9a.47.47,0,0,1-.17,0c-6.2-2.44-10.78-8-13.24-16.1a44.51,44.51,0,0,1-1.88-11.57v0c1.15-11.42-2-18.83-2-18.9s0,0,0,0c-2.44-8.2-1.12-13.42.43-16.36a11,11,0,0,1,4.06-4.52.45.45,0,0,1,.6.14.37.37,0,0,1-.15.54,10.48,10.48,0,0,0-3.75,4.24c-1.46,2.81-2.71,7.82-.35,15.73.19.46,3.18,7.93,2.06,19.23,0,.7.35,21.33,14.58,26.92a.38.38,0,0,1,.23.52A.44.44,0,0,1,579.07,239.9Z" fill="#2f2e41"/><path d="M619.1,202.14l11,23.16c-11,14.39-22.89,13.68-22.89,13.68l-3.52-12s10.89-1.93,14.84-14.29A19.7,19.7,0,0,0,619.1,202.14Z" fill="#f9b499"/><path d="M603.74,227l2.42,8.69s16.06-6.71,11.87-21.42A21.69,21.69,0,0,1,603.74,227Z" fill="#f7a48b"/><path d="M605.9,234.69,601,237.4s5.53,43.94,20,78.93c0,0,4.73-72.88,16.31-90.77a20.88,20.88,0,0,0-7.56-1.31l.45,1.05s-8.41,12.89-22.89,13.68Z" fill="#e6e6e6"/><path d="M602.59,246.91l3.34,2a1.55,1.55,0,0,0,2.14-.53l5.51-9.18,7.16,5.6a2.07,2.07,0,0,0,2.53,0l9-6.85" fill="none" stroke="#ccc" stroke-linecap="round" stroke-linejoin="round"/><path d="M692.77,382.11s10,18.15-1,32.62c0,0,5.26-26.05-17.1-33.15a64,64,0,0,0-31-4.21l-28.41,1.05s-2.11.79-1.84-1.58c0,0,7.89,0,4.73-18.41,0,0-1.31-16.31-18.42-14.47l-1-7.63-13.05-19.15a24.47,24.47,0,0,1-4-10.54l-.56-4.25-39.2,13.68-90.51-.27v-.13c0-1.23-.31-10.84-2.41-18.59a26.7,26.7,0,0,0-2.32-6L512,284.5,601,237.4s5.26,42.36,20,78.93c0,0,4.47-70.77,16.31-90.77,0,0,25.52,7.1,30.26,11.84,0,0,14.73,13.94,22.1,43.94l10.78,45.51s5,23.68-15.52,32.37C684.88,359.22,684.35,367.9,692.77,382.11Z" fill="#0071f2"/><g opacity="0.2"><path d="M609.63,343a.13.13,0,0,1-.12-.1.12.12,0,0,1,.08-.16l63.94-20a.13.13,0,0,1,.16.09.12.12,0,0,1-.08.16l-63.94,20Z"/></g><g opacity="0.2"><path d="M659.08,327.42a.13.13,0,0,1-.13-.13l-1.3-50.42a.14.14,0,0,1,.13-.14.13.13,0,0,1,.13.13l1.3,50.42a.13.13,0,0,1-.13.14Z"/></g><g opacity="0.2"><path d="M652.26,259.37h0a.14.14,0,0,1-.13-.14c0-.17,1.34-16.31,9.34-25.39a.13.13,0,1,1,.2.17c-7.94,9-9.26,25.08-9.27,25.24A.14.14,0,0,1,652.26,259.37Z"/></g><g opacity="0.2"><path d="M639.26,252.29l7.09-5.45a4.67,4.67,0,0,0,1.59-5.18l-4.75-14.32a.13.13,0,0,0-.17-.08.14.14,0,0,0-.08.16l4.75,14.32a4.42,4.42,0,0,1-1.5,4.89l-7.11,5.46a.12.12,0,0,0-.16,0,.12.12,0,0,0,0,.15L634,256a.12.12,0,0,0,0,.18.12.12,0,0,0,.1,0,.11.11,0,0,0,.08,0l4.87-3.73,7.32,9c0,.05,3.31,4.26-1.34,13.81-.14.29-14.51,29.78-17.11,55.3a.13.13,0,0,0,.12.14h0a.13.13,0,0,0,.13-.12c2.6-25.46,17-54.91,17.09-55.21,4.72-9.69,1.44-13.91,1.3-14.08Z"/><path d="M592.31,282.81a4.47,4.47,0,0,1-.54-4.34L597,264l4.38,2.2h.06a.14.14,0,0,0,.11-.07.13.13,0,0,0-.05-.18l-4.41-2.2h0a.13.13,0,0,0-.08-.16.11.11,0,0,0-.15.05l-5.17-2.58a2.58,2.58,0,0,1-1.4-2.71l2.58-17a.14.14,0,0,0-.12-.15.13.13,0,0,0-.14.11l-2.58,17a2.83,2.83,0,0,0,1.54,3l5.19,2.6-5.28,14.49a4.78,4.78,0,0,0,.57,4.59L618,318.51a.11.11,0,0,0,.1.06.11.11,0,0,0,.08,0,.13.13,0,0,0,0-.18Z"/></g><g opacity="0.2"><path d="M598.58,336.46a.14.14,0,0,1-.11-.06l-13-19.15c-4.34-6.22-4.61-14.77-4.61-14.86v0l4.48-23.94a.13.13,0,0,1,.15-.11.15.15,0,0,1,.11.16l-4.47,23.93c0,.38.34,8.66,4.55,14.7l13.05,19.15a.14.14,0,0,1,0,.19Z"/></g><g opacity="0.2"><path d="M580.43,271.47a.14.14,0,0,1-.13-.1c-1.81-7.26-9.43-18.09-9.51-18.2A.13.13,0,1,1,571,253c.07.1,7.72,11,9.55,18.29a.14.14,0,0,1-.1.16Z"/></g><path d="M618.58,375.27s56-11.58,66.3-16c0,0-.56,6.72,5,17.57,0,0-13.66-5.47-39.71-2.84Z" opacity="0.2"/><g opacity="0.2"><path d="M515.18,288.84a.13.13,0,0,1-.13-.14,3.23,3.23,0,0,0-1.13-2.59c-2.27-1.92-7.18-1.12-7.23-1.11a.13.13,0,0,1-.15-.11.12.12,0,0,1,.1-.15c.21,0,5.09-.83,7.45,1.17a3.49,3.49,0,0,1,1.22,2.79A.13.13,0,0,1,515.18,288.84Z"/></g><path d="M691.72,414.73c-.79,17.1-10.79,20.52-10.79,20.52-40,.53-69.19,3.69-69.19,3.69l-3.16,92.35L576.22,536,569,563.84a3.22,3.22,0,0,1-4.48,2.12l-1.67-.77-26.75-12.46a30.76,30.76,0,0,0-3.62-1.46,28.3,28.3,0,0,0-3-.82,41.87,41.87,0,0,1-16.19-6.84,3.72,3.72,0,0,1-1.43-3.67l17.5-93.9c7.89-48.94,23.41-46,23.41-46-4.21-50.78,23.65-51.64,23.65-51.64l30.29,8,6.58,20.52c-.27,2.64,1.84,1.58,1.84,1.58l28.41-1.05c19.74-1.84,31,4.21,31,4.21C697.51,389.47,691.72,414.73,691.72,414.73Z" fill="#2f2e41"/><path d="M559.36,589.25a45,45,0,0,1,1.6,9.39h0L559.37,600c-1.87-8.82-8.28-9.63-8.28-9.63-7.09-1.77-10.45,1.67-11.92,4.45a16.81,16.81,0,0,0-1,2.83,4.86,4.86,0,0,0-.06.49c-4.21,10-6.84-.79-6.84-.79V597l1.27-45.73a30.76,30.76,0,0,1,3.62,1.46l26.75,12.46c-1.91,4.35-3.31,12.34-4,17.13A16.24,16.24,0,0,0,559.36,589.25Z" fill="#f9b499"/><path d="M561,598.64l-1.84,1.58c-1.85-8.94-8.69-9.21-8.69-9.21-6.82-1.06-9.88,1.46-11.26,3.79,1.47-2.78,4.83-6.22,11.92-4.45,0,0,6.41.81,8.28,9.63Z" fill="#f9b499"/><path d="M566.73,634.7c-.27,11.42-14.46,11.68-14.46,11.68-13.58,1.52-21.95-1.16-25.43-2.69a3,3,0,0,1-1.82-2.88,101.27,101.27,0,0,1,3.16-19.07A201.12,201.12,0,0,0,531.11,597s.1-.11.13,0h0a2.16,2.16,0,0,0,.08.67c.49,1.72,2.87,9,6.47,1.09a5,5,0,0,0,.34-1.12h0c0-.16.09-.32.13-.47a10.66,10.66,0,0,1,.91-2.36c1.47-2.78,4.83-6.22,11.92-4.45,0,0,6.41.81,8.28,9.63l1.59-1.34h0l0,0C564.2,609,566.73,634.7,566.73,634.7Z" fill="#0071f2"/><path d="M567,644.32a14.35,14.35,0,0,1-9.2,8.17c-14.16,4.39-29.09-.93-29.09-.93-7-3.63-3.7-10.75-3.7-10.75a3,3,0,0,0,1.82,2.88c3.48,1.53,11.85,4.21,25.43,2.69,0,0,14.19-.26,14.46-11.68A11.83,11.83,0,0,1,567,644.32Z" fill="#e6e6e6"/><path d="M754.08,521.82s-4.48,10-55,18.68l-29.73,5.78h-.15c-1.06-.16-7.61-2.09-9.06-25.77,0,0,0-27.92,1.53-38.91a2.68,2.68,0,0,1,2.11-2.25l65-13.57s8.42-3.15,13.68,13.69Z" fill="#0071f2"/><path d="M669.36,546.28h0Z" fill="none" stroke="#323232" stroke-miterlimit="10"/><path d="M663.31,485.77s2.66,26.69,6.14,38.76a7.94,7.94,0,0,0,7.93,5.75c6.94-.25,21.09-1.71,43.55-8.2l16.57-4.21s9.21-2.9,8.68-9.74l.79-9.73s2.53,9.33,1.46,15.73a7.22,7.22,0,0,1-4.56,5.56c-7.51,2.88-31.45,11-71.09,15.54,0,0-7.37,2.37-9.21-13.41C663.57,521.82,662,493.14,663.31,485.77Z" opacity="0.2"/><path d="M222.34,198.2l-.52,1.84s16.57,10.52,33.94,32.62l15.52,19.21s-3.27-20.71-4-25.09l-7.84-25.95a48.26,48.26,0,0,0-8.55-4.57l-21.44.62Z" fill="#e6e6e6"/><path d="M271.28,251.87l-4-25.09-7.84-25.95c19.21,4.21,21.05,20.78,21.05,20.78,2.89,14.21,7.1,22.1,7.1,22.1,4.31,8.27,2.37,19,.7,25a58.41,58.41,0,0,0-2.09,19.1c.91,15.44,7.18,19.89,7.18,19.89l-48.94.79-31-32.63c19.5-9.75,16.87-28.23,14.44-36.66-.85-2.92-2.64-6.18-3.47-9.1-4.71-16.5-14.13-24-14.13-24L221.82,200a151.36,151.36,0,0,1,25.45,22.52s6.31,6.94,19.37,23.52Z" fill="#0071f2"/><path d="M210.24,206.09s-9.21-3.16-18.94,21c0,0-14,38.67-13.69,73.14,0,0-2.89,20.52,14.48,16.58,0,0,52.09-4.74,58.67-13.68l6.31-2.11s-4.21-5.52-1.84-22.89c0,0,.26-6.84,3.42-8.68,0,0-6-1.84-12.63,3.94,0,0-14.21-1.84-32.62,2.37,0,0,22.81-8.88,14.29-37-.76-2.51-1.48-5-2.08-7.6C224.21,225.27,220.25,213.21,210.24,206.09Z" fill="#0071f2"/><path d="M255.23,278.18a66.53,66.53,0,0,0-.64,12.76c.45,7.46,2.48,10.13,2.48,10.13l-6.31,2.11c-6.58,8.94-58.68,13.67-58.68,13.67-17.36,3.95-14.46-16.57-14.46-16.57-.26-34.47,13.68-73.14,13.68-73.14,9.73-24.21,18.94-21,18.94-21,10,7.12,14,19.19,15.37,25.13.6,2.57,1.32,5.09,2.09,7.61,8.51,28.1-14.31,37-14.31,37,18.43-4.21,32.63-2.36,32.63-2.36,6.58-5.8,12.63-3.95,12.63-3.95C255.49,271.34,255.23,278.18,255.23,278.18Z" fill="#fff" opacity="0.4"/><path d="M257.07,301.07s3.42,0,3.42-10.79l-5.77.74A20.41,20.41,0,0,0,257.07,301.07Z" fill="#0071f2"/><path d="M257.07,301.07s3.42,0,3.42-10.79l-5.77.74A20.41,20.41,0,0,0,257.07,301.07Z" fill="#fff" opacity="0.5"/><g opacity="0.4"><path d="M245.76,294.15a.43.43,0,0,1-.44-.37c-2.1-12.33.17-20.14.27-20.46a.46.46,0,0,1,.56-.31.45.45,0,0,1,.3.56c0,.08-2.31,7.95-.25,20.06a.45.45,0,0,1-.37.52Z" fill="#fff"/></g><path d="M289.57,265.12s8-1.41,8.55,2c0,0,.33,3.14-2.2,4.2C295.92,271.33,294.44,268.1,289.57,265.12Z" fill="#f7a48b"/><path d="M283.91,240.91h0a2.5,2.5,0,0,1,2.5,2.5v44.67a0,0,0,0,1,0,0h-5a0,0,0,0,1,0,0V243.41A2.5,2.5,0,0,1,283.91,240.91Z" transform="translate(-102 304.9) rotate(-48.95)" fill="#2f2e41"/><polygon points="305.22 283.44 303.34 278.1 300.06 281.87 305.22 283.44" fill="#2f2e41"/><path d="M451.24,315.67l-41-.13a2.85,2.85,0,0,1-1.46-4.1c-7.07-4.27-3.87-9.24-3.87-9.24-3.91-4.25,1.37-6.83,1.37-6.83,12.69-6.21,13.44-1.73,13.44-1.73,6.86-2.84,16.55,3,16.55,3,5.53,3.62,11.44,1,12.52.41C450.93,304.83,451.21,314.44,451.24,315.67Z" fill="#f9b499"/><path d="M397.48,271.39l19.82,39.68,3.42-1.05L401,269.61a2,2,0,0,0-2.57-.95h0A2,2,0,0,0,397.48,271.39Z" fill="#0071f2"/><g opacity="0.4"><path d="M213.4,276.26a.43.43,0,0,1-.29-.1.46.46,0,0,1-.06-.64c6.63-7.9,1.27-39.31,1.22-39.62a.45.45,0,0,1,.37-.52.46.46,0,0,1,.52.36c.22,1.31,5.48,32.14-1.42,40.36A.43.43,0,0,1,213.4,276.26Z" fill="#fff"/></g><g opacity="0.4"><path d="M199.19,282.31a.43.43,0,0,1-.42-.3.43.43,0,0,1,.27-.57l14.38-5.11a.45.45,0,0,1,.3.85l-14.38,5.11A.39.39,0,0,1,199.19,282.31Z" fill="#fff"/></g><ellipse cx="617.92" cy="193.59" rx="6.45" ry="8.81" fill="#f9b499"/><path d="M599.63,344s-25-2.63-23.67,6.05c0,0-16.05,5.79-13.42,14.47,0,0-5.53,4.47-3.16,8.16,0,0,1,2.89,8.16-.53l15.78-6.58L567.54,375s-3.16,3.16.79,5c0,0,3.15,1.58,10-3.16,0,0,9.74-6.31,14.74-5.26,0,0,1.31,1.84-2.9,3.69,0,0-11,5-8.15,8.68,0,0,2.36,2.63,10.52-2.37l15-11.31,11.29-3.86s0-14.23-5.39-18.08C613.43,348.33,608.84,342.38,599.63,344Z" fill="#f9b499"/><path d="M601.48,370.4h0a.13.13,0,0,1-.11-.15c.5-5.34-4.68-6.64-4.9-6.7a.12.12,0,0,1-.1-.12c0-5.06-3.16-5.13-3.29-5.13a.12.12,0,0,1-.1-.05.09.09,0,0,1,0-.1,5.13,5.13,0,0,0-4.62-5.91.13.13,0,0,1-.12-.14c.25-3.53-5.11-5.11-5.17-5.12a.14.14,0,0,1-.09-.17.14.14,0,0,1,.17-.09c.22.07,5.5,1.62,5.36,5.28a5.39,5.39,0,0,1,4.74,6c.66.08,3.37.67,3.41,5.29.75.21,5.49,1.79,5,6.95A.14.14,0,0,1,601.48,370.4Z" fill="#f7a48b"/><path d="M562.54,364.61a.12.12,0,0,1-.12-.07.14.14,0,0,1,.06-.18l16.83-8.94a.13.13,0,1,1,.13.23l-16.84,9Z" fill="#f7a48b"/><path d="M613.45,377c-4.32.58-5.92-6.71-5.92-6.71l11.29-3.86S619.24,376.19,613.45,377Z" fill="#0071f2"/><path d="M613.45,377c-4.32.58-5.92-6.71-5.92-6.71l11.29-3.86S619.24,376.19,613.45,377Z" opacity="0.2"/><path d="M419.67,293.7s-9.47,4.48-4.47,7.9c0,0,2.1,1.84,10.52-2.37" fill="#f9b499"/><path d="M417,302.13a3,3,0,0,1-1.89-.43,2.8,2.8,0,0,1-1.49-2.51c.22-2.85,5.76-5.49,6-5.61a.14.14,0,0,1,.18.07.13.13,0,0,1-.06.17c-.06,0-5.64,2.69-5.85,5.39a2.57,2.57,0,0,0,1.39,2.28s2.2,1.72,10.39-2.38a.13.13,0,0,1,.18.06.13.13,0,0,1-.06.18C421.28,301.6,418.56,302.13,417,302.13Z" fill="#f7a48b"/><path d="M414.67,306.86s5.53,2.37,3.16,5.52c0,0-2.37,2.11-8.95-.79" fill="#f9b499"/><path d="M415,313.26a15.49,15.49,0,0,1-6.13-1.54.14.14,0,0,1-.07-.18.16.16,0,0,1,.18-.07c6.2,2.73,8.63.95,8.79.82a2.29,2.29,0,0,0,.48-2c-.51-1.93-3.56-3.26-3.59-3.27a.13.13,0,0,1,.1-.24c.13.05,3.2,1.39,3.75,3.44a2.59,2.59,0,0,1-.54,2.28,0,0,0,0,1,0,0A4.58,4.58,0,0,1,415,313.26Zm2.87-.88Z" fill="#f7a48b"/><path d="M426.55,315.86a2.68,2.68,0,0,0-3.72-2.69s1.33-3.84-4.74-3.68a2,2,0,0,1-.26,2.89" fill="#f9b499"/><path d="M426.55,316a.13.13,0,0,1-.13-.13,2.87,2.87,0,0,0-1.07-2.36,3.14,3.14,0,0,0-2.48-.2.14.14,0,0,1-.13,0,.15.15,0,0,1,0-.14,2.56,2.56,0,0,0-.31-2.19c-.66-.89-2-1.34-4.05-1.32a2.07,2.07,0,0,1-.43,2.87.14.14,0,0,1-.17-.21,1.87,1.87,0,0,0,.25-2.71.12.12,0,0,1,0-.13.13.13,0,0,1,.12-.08c2.26-.06,3.78.42,4.52,1.43A2.78,2.78,0,0,1,423,313a3.19,3.19,0,0,1,2.48.3,3.12,3.12,0,0,1,1.18,2.57.14.14,0,0,1-.12.14Z" fill="#f7a48b"/><path d="M422.2,300.9s3.52-.36,6.15,6.22" fill="#f9b499"/><path d="M428.35,307.25a.13.13,0,0,1-.12-.08c-2.56-6.39-6-6.14-6-6.14a.13.13,0,1,1,0-.26c.15,0,3.65-.29,6.29,6.3a.13.13,0,0,1-.08.17Z" fill="#f7a48b"/><path d="M409.94,297.91s6.31,3.42,6.05,6a8.94,8.94,0,0,1-.05,1.42,2,2,0,0,1-3.08,1.49l-6.08-3.69" fill="#f9b499"/><path d="M413.92,307.3a2.14,2.14,0,0,1-1.12-.32l-6.09-3.69a.13.13,0,0,1,.14-.23l6.08,3.7a1.91,1.91,0,0,0,2.88-1.4,8.55,8.55,0,0,0,.05-1.39c.25-2.53-5.92-5.91-6-5.94a.14.14,0,0,1-.05-.18.13.13,0,0,1,.18-.05c.26.14,6.39,3.49,6.12,6.18a8.82,8.82,0,0,1-.05,1.41,2.17,2.17,0,0,1-2.15,1.91Z" fill="#f7a48b"/><g opacity="0.2"><path d="M611.74,439.07h0a.12.12,0,0,1-.13-.13l.79-55.52a.13.13,0,0,1,.13-.13h0a.13.13,0,0,1,.13.13l-.79,55.52A.13.13,0,0,1,611.74,439.07Z"/></g><g opacity="0.2"><path d="M612.28,390.56a.13.13,0,0,1-.06-.24c8.1-4.79,28.5-7.53,28.7-7.55a.13.13,0,0,1,.15.11.13.13,0,0,1-.11.15c-.21,0-20.55,2.75-28.61,7.52Z"/></g><g opacity="0.2"><path d="M544.38,511.42h0a.13.13,0,0,1-.11-.16c.08-.35,7.37-35.67,7.63-73.11,0-.26-1.81-27,.79-38.18a.13.13,0,0,1,.26.06c-2.6,11.16-.8,37.84-.79,38.11-.26,37.48-7.55,72.83-7.63,73.18A.13.13,0,0,1,544.38,511.42Z"/></g><path d="M574.44,528.07s-32.16-7.83-28.48-12c0,0,1.66-3.84,26,.58Z" opacity="0.2"/><path d="M612.79,600s3.16,36.31-20,42.09c0,0-5,2.11-17.1,2.9,0,0-8.15,0-5.26-7.37l17.89-46.83s3.95-9.74,9.47-2.11c0,0,6.84,9.48,10-1L612.26,571l8.16,16.83h0C620.47,588,621.23,591.26,612.79,600Z" fill="#0071f2"/><path d="M627,604.43c0,8.16-11.32,15.26-11.32,15.26-2.36,12.63-8.94,19.47-8.94,19.47-13.16,15.79-32.89,10.52-32.89,10.52-8.68-3.94-3.42-12.1-3.42-12.1-2.89,7.37,5.26,7.37,5.26,7.37,12.1-.79,17.1-2.9,17.1-2.9,23.16-5.78,20-42.09,20-42.09,8.44-8.7,7.68-11.92,7.63-12.1Z" fill="#e6e6e6"/><path d="M571.92,516.61l16.4,74.14s3.68-9.21,9.47-2.11c0,0,6.32,10,10-1l3.68-13.42-4.73-43.67S603.66,521.4,571.92,516.61Z" fill="#f9b499"/><path d="M661.68,481.59c-1.53,11-1.53,38.91-1.53,38.91,1.45,23.68,8,25.61,9.06,25.77-2.19-.24-28.56-3.3-29.32-12.88a258.57,258.57,0,0,1,10.79-41.83s5.26-20,10.52-41.57L694,333.15s12.76-38.81,19.17-47.81l10.15.23s-26.89,53.91-40.57,117.06l-19,76.71A2.68,2.68,0,0,0,661.68,481.59Z" fill="#2f2e41"/><path d="M661.68,481.59c-1.53,11-1.53,38.91-1.53,38.91,1.45,23.68,8,25.61,9.06,25.77-2.19-.24-28.56-3.3-29.32-12.88a258.57,258.57,0,0,1,10.79-41.83s5.26-20,10.52-41.57L694,333.15s12.76-38.81,19.17-47.81l10.15.23s-26.89,53.91-40.57,117.06l-19,76.71A2.68,2.68,0,0,0,661.68,481.59Z" opacity="0.2"/><path d="M199.45,172.34a.46.46,0,0,1-.41-.27,31,31,0,0,1-2.34-14.81c-1.36,1-4.09,3.73-3.9,9.88a.45.45,0,0,1-.44.46.45.45,0,0,1-.46-.44c-.27-8.62,4.95-11.07,5.17-11.17a.43.43,0,0,1,.45,0,.45.45,0,0,1,.18.43,30.42,30.42,0,0,0,2.16,15.23.46.46,0,0,1-.22.6A.65.65,0,0,1,199.45,172.34Z" fill="#2f2e41"/><polygon points="218.13 170.57 224.18 189.78 244.18 197.93 248.13 192.67 245.76 186.36 220.72 168.44 218.13 170.57" fill="#f9b499"/><path d="M245.76,186.36l2.37,6.31s-12.8,4.44-18.24-9.75Z" fill="#f7a48b"/><path d="M260.19,151.29h-.09a.45.45,0,0,1-.35-.53c.12-.64,2.8-15.72-10.34-20.13a.45.45,0,1,1,.29-.85c13.88,4.66,11,21,10.93,21.15A.45.45,0,0,1,260.19,151.29Z" fill="#2f2e41"/><path d="M215.1,129.07l-12.84,31.21a10.93,10.93,0,0,1-5-3.88c-1.34-2-2.18-4.77-1.22-8.72,0,0,2.11-17.22,14.4-18.75A15.82,15.82,0,0,1,215.1,129.07Z" fill="#0071f2"/><path d="M196,147.68c-1,3.95-.12,6.76,1.22,8.72-2.32-.07-16.84-1.14-14.9-16.88,0,0-.53-6.31,8.42-10.78,0,0,3.67-16.79,19.66.19C198.14,130.46,196,147.68,196,147.68Z" fill="#2f2e41"/><rect x="219.59" y="130.32" width="39.33" height="62.17" rx="19.67" transform="translate(-49.35 159.63) rotate(-33.65)" fill="#f9b499"/><path d="M222,182.8s-17-.39-19.87-24.07c0,0-1.05-13.15,3.42-17.36,0,0,5.53-20,28.16-14.21,0,0,19.47-4.21,21.57,11.05l.46,12.37-6.78-10.15s-6.83-8.27-13.94-3.27c0,0-3.68,5.26-9.73,6.31a6.77,6.77,0,0,0-4.48,8.68s-3.38.32-1.3,10.95l-1.33,7.47Z" fill="#2f2e41"/><ellipse cx="214.16" cy="166.77" rx="6.45" ry="8.68" transform="translate(-56.85 151.56) rotate(-34.7)" fill="#f9b499"/><path d="M224.18,189.78s-1.84-1.06-1.84,2.37v6l18.42,2.89s3.16,0,1.58,5.53c0,0-10.53,20.78,1.31,35.52l2.63-35.79s.53-2.37,2.64,0c0,0,14.73,18.68,16.31,28.16,0,0,7.63-19.74-5-26.58l-11.58-5.52s-2.63-1.32,0-3.42l1.24-1a2.29,2.29,0,0,0,.77-2.47c-.39-1.22-1.14-2.73-2.53-2.89l-3.95,5.26Z" fill="#0071f2"/><path d="M224.18,189.78s-1.84-1.06-1.84,2.37v6l18.42,2.89s3.16,0,1.58,5.53c0,0-10.53,20.78,1.31,35.52l2.63-35.79s.53-2.37,2.64,0c0,0,14.73,18.68,16.31,28.16,0,0,7.63-19.74-5-26.58l-11.58-5.52s-2.63-1.32,0-3.42l1.24-1a2.29,2.29,0,0,0,.77-2.47c-.39-1.22-1.14-2.73-2.53-2.89l-3.95,5.26Z" fill="#fff" opacity="0.4"/><path d="M294.17,278.18s1.58,3.69-4.21,3.95c0,0-.79,2.89-5.53,2.89,0,0-.52,3.42-5.78,3.42l-18.15,1.84-5.91.66a66.53,66.53,0,0,1,.64-12.76s.26-6.84,3.42-8.68l5.79-.6a7.57,7.57,0,0,0,3.38-1.21l7-4.61a8.26,8.26,0,0,1,6.82-1.06c3,.88,7.17,2.33,9.63,4.32C291.28,266.34,301.54,273.71,294.17,278.18Z" fill="#f9b499"/><path d="M294.17,278.63a.44.44,0,0,1-.42-.3c-3-8.3-14-9.43-14.09-9.44a.45.45,0,0,1-.41-.49.46.46,0,0,1,.49-.4c.12,0,11.63,1.18,14.85,10a.43.43,0,0,1-.27.57Z" fill="#f7a48b"/><path d="M290,282.58a.45.45,0,0,1-.44-.36c-1.24-6.19-12.14-7.79-12.25-7.8a.45.45,0,0,1-.38-.51.43.43,0,0,1,.5-.38c.48.06,11.65,1.7,13,8.51a.45.45,0,0,1-.35.53Z" fill="#f7a48b"/><path d="M284.43,285.47a.44.44,0,0,1-.43-.35c-1-4.32-11.81-4.12-11.92-4.12a.45.45,0,0,1-.46-.44.44.44,0,0,1,.44-.46c.48,0,11.69-.22,12.81,4.82a.44.44,0,0,1-.34.54Z" fill="#f7a48b"/><rect x="225.24" y="307.76" width="126.03" height="8.68" rx="4.34" fill="#e6e6e6"/></svg>